# xmcd
# Track frame offsets:
# 150
# 13387
# 28545
# 46297
# 61297
# 74135
# 90537
# 104100
# 120830
# 136310
# 149892
# 160360
#
# Disc length: 2290 seconds
# Revision: 0
# Processed by: cddbd v1.4PL0 Copyright (c) Steve Scherf et al.
# Submitted via: VisiTrax 2.9.5.180 - For more info visit www.synapsa.com
#
DISCID=b508f00c
DTITLE=Hatchet - Playin' Possum
DYEAR=2000
DGENRE=
TTITLE0=Plain' possum
TTITLE1=Make my day tonight
TTITLE2=Over the moon
TTITLE3=Lord. let me settle down
TTITLE4=I will if I have to
TTITLE5=We have our act together
TTITLE6=Back to Bakersfield
TTITLE7=Don't follow me
TTITLE8=Fool's gold
TTITLE9=Friends don't drive friends
TTITLE10=My temperature rises when the sun goes down
TTITLE11=You really hit the spot
EXTD=
EXTT0=
EXTT1=
EXTT2=
EXTT3=
EXTT4=
EXTT5=
EXTT6=
EXTT7=
EXTT8=
EXTT9=
EXTT10=
EXTT11=
PLAYORDER=
